mtllib dispatch_panel.mtl
v -0.300000 0.000000 0.070000
v 0.300000 0.000000 0.070000
v 0.300000 0.060000 0.070000
v -0.300000 0.060000 0.070000
v 0.300000 0.000000 -0.070000
v -0.300000 0.000000 -0.070000
v -0.300000 0.060000 -0.070000
v 0.300000 0.060000 -0.070000
v 0.300000 0.000000 0.070000
v 0.300000 0.000000 -0.070000
v 0.300000 0.060000 -0.070000
v 0.300000 0.060000 0.070000
v -0.300000 0.000000 -0.070000
v -0.300000 0.000000 0.070000
v -0.300000 0.060000 0.070000
v -0.300000 0.060000 -0.070000
v -0.300000 0.060000 0.070000
v 0.300000 0.060000 0.070000
v 0.300000 0.060000 -0.070000
v -0.300000 0.060000 -0.070000
v -0.300000 0.000000 -0.070000
v 0.300000 0.000000 -0.070000
v 0.300000 0.000000 0.070000
v -0.300000 0.000000 0.070000
v -0.285000 0.059000 0.062500
v 0.285000 0.059000 0.062500
v 0.285000 0.071000 0.062500
v -0.285000 0.071000 0.062500
v 0.285000 0.059000 -0.062500
v -0.285000 0.059000 -0.062500
v -0.285000 0.071000 -0.062500
v 0.285000 0.071000 -0.062500
v 0.285000 0.059000 0.062500
v 0.285000 0.059000 -0.062500
v 0.285000 0.071000 -0.062500
v 0.285000 0.071000 0.062500
v -0.285000 0.059000 -0.062500
v -0.285000 0.059000 0.062500
v -0.285000 0.071000 0.062500
v -0.285000 0.071000 -0.062500
v -0.285000 0.071000 0.062500
v 0.285000 0.071000 0.062500
v 0.285000 0.071000 -0.062500
v -0.285000 0.071000 -0.062500
v -0.285000 0.059000 -0.062500
v 0.285000 0.059000 -0.062500
v 0.285000 0.059000 0.062500
v -0.285000 0.059000 0.062500
v -0.265000 0.050000 0.047500
v 0.265000 0.050000 0.047500
v 0.265000 0.054000 0.047500
v -0.265000 0.054000 0.047500
v 0.265000 0.050000 -0.047500
v -0.265000 0.050000 -0.047500
v -0.265000 0.054000 -0.047500
v 0.265000 0.054000 -0.047500
v 0.265000 0.050000 0.047500
v 0.265000 0.050000 -0.047500
v 0.265000 0.054000 -0.047500
v 0.265000 0.054000 0.047500
v -0.265000 0.050000 -0.047500
v -0.265000 0.050000 0.047500
v -0.265000 0.054000 0.047500
v -0.265000 0.054000 -0.047500
v -0.265000 0.054000 0.047500
v 0.265000 0.054000 0.047500
v 0.265000 0.054000 -0.047500
v -0.265000 0.054000 -0.047500
v -0.265000 0.050000 -0.047500
v 0.265000 0.050000 -0.047500
v 0.265000 0.050000 0.047500
v -0.265000 0.050000 0.047500
v -0.340000 0.061000 0.035000
v -0.180000 0.061000 0.035000
v -0.180000 0.083000 0.035000
v -0.340000 0.083000 0.035000
v -0.180000 0.061000 -0.035000
v -0.340000 0.061000 -0.035000
v -0.340000 0.083000 -0.035000
v -0.180000 0.083000 -0.035000
v -0.180000 0.061000 0.035000
v -0.180000 0.061000 -0.035000
v -0.180000 0.083000 -0.035000
v -0.180000 0.083000 0.035000
v -0.340000 0.061000 -0.035000
v -0.340000 0.061000 0.035000
v -0.340000 0.083000 0.035000
v -0.340000 0.083000 -0.035000
v -0.340000 0.083000 0.035000
v -0.180000 0.083000 0.035000
v -0.180000 0.083000 -0.035000
v -0.340000 0.083000 -0.035000
v -0.340000 0.061000 -0.035000
v -0.180000 0.061000 -0.035000
v -0.180000 0.061000 0.035000
v -0.340000 0.061000 0.035000
v -0.080000 0.061000 0.035000
v 0.080000 0.061000 0.035000
v 0.080000 0.083000 0.035000
v -0.080000 0.083000 0.035000
v 0.080000 0.061000 -0.035000
v -0.080000 0.061000 -0.035000
v -0.080000 0.083000 -0.035000
v 0.080000 0.083000 -0.035000
v 0.080000 0.061000 0.035000
v 0.080000 0.061000 -0.035000
v 0.080000 0.083000 -0.035000
v 0.080000 0.083000 0.035000
v -0.080000 0.061000 -0.035000
v -0.080000 0.061000 0.035000
v -0.080000 0.083000 0.035000
v -0.080000 0.083000 -0.035000
v -0.080000 0.083000 0.035000
v 0.080000 0.083000 0.035000
v 0.080000 0.083000 -0.035000
v -0.080000 0.083000 -0.035000
v -0.080000 0.061000 -0.035000
v 0.080000 0.061000 -0.035000
v 0.080000 0.061000 0.035000
v -0.080000 0.061000 0.035000
v 0.180000 0.061000 0.035000
v 0.340000 0.061000 0.035000
v 0.340000 0.083000 0.035000
v 0.180000 0.083000 0.035000
v 0.340000 0.061000 -0.035000
v 0.180000 0.061000 -0.035000
v 0.180000 0.083000 -0.035000
v 0.340000 0.083000 -0.035000
v 0.340000 0.061000 0.035000
v 0.340000 0.061000 -0.035000
v 0.340000 0.083000 -0.035000
v 0.340000 0.083000 0.035000
v 0.180000 0.061000 -0.035000
v 0.180000 0.061000 0.035000
v 0.180000 0.083000 0.035000
v 0.180000 0.083000 -0.035000
v 0.180000 0.083000 0.035000
v 0.340000 0.083000 0.035000
v 0.340000 0.083000 -0.035000
v 0.180000 0.083000 -0.035000
v 0.180000 0.061000 -0.035000
v 0.340000 0.061000 -0.035000
v 0.340000 0.061000 0.035000
v 0.180000 0.061000 0.035000
vt 0.000000 0.000000
vt 1.000000 0.000000
vt 1.000000 1.000000
vt 0.000000 1.000000
vt 0.000000 0.000000
vt 1.000000 0.000000
vt 1.000000 1.000000
vt 0.000000 1.000000
vt 0.000000 0.000000
vt 1.000000 0.000000
vt 1.000000 1.000000
vt 0.000000 1.000000
vt 0.000000 0.000000
vt 1.000000 0.000000
vt 1.000000 1.000000
vt 0.000000 1.000000
vt 0.000000 0.000000
vt 1.000000 0.000000
vt 1.000000 1.000000
vt 0.000000 1.000000
vt 0.000000 0.000000
vt 1.000000 0.000000
vt 1.000000 1.000000
vt 0.000000 1.000000
vt 0.000000 0.000000
vt 1.000000 0.000000
vt 1.000000 1.000000
vt 0.000000 1.000000
vt 0.000000 0.000000
vt 1.000000 0.000000
vt 1.000000 1.000000
vt 0.000000 1.000000
vt 0.000000 0.000000
vt 1.000000 0.000000
vt 1.000000 1.000000
vt 0.000000 1.000000
vt 0.000000 0.000000
vt 1.000000 0.000000
vt 1.000000 1.000000
vt 0.000000 1.000000
vt 0.000000 0.000000
vt 1.000000 0.000000
vt 1.000000 1.000000
vt 0.000000 1.000000
vt 0.000000 0.000000
vt 1.000000 0.000000
vt 1.000000 1.000000
vt 0.000000 1.000000
vt 0.000000 0.000000
vt 1.000000 0.000000
vt 1.000000 1.000000
vt 0.000000 1.000000
vt 0.000000 0.000000
vt 1.000000 0.000000
vt 1.000000 1.000000
vt 0.000000 1.000000
vt 0.000000 0.000000
vt 1.000000 0.000000
vt 1.000000 1.000000
vt 0.000000 1.000000
vt 0.000000 0.000000
vt 1.000000 0.000000
vt 1.000000 1.000000
vt 0.000000 1.000000
vt 0.000000 0.000000
vt 1.000000 0.000000
vt 1.000000 1.000000
vt 0.000000 1.000000
vt 0.000000 0.000000
vt 1.000000 0.000000
vt 1.000000 1.000000
vt 0.000000 1.000000
vt 0.000000 0.000000
vt 1.000000 0.000000
vt 1.000000 1.000000
vt 0.000000 1.000000
vt 0.000000 0.000000
vt 1.000000 0.000000
vt 1.000000 1.000000
vt 0.000000 1.000000
vt 0.000000 0.000000
vt 1.000000 0.000000
vt 1.000000 1.000000
vt 0.000000 1.000000
vt 0.000000 0.000000
vt 1.000000 0.000000
vt 1.000000 1.000000
vt 0.000000 1.000000
vt 0.000000 0.000000
vt 1.000000 0.000000
vt 1.000000 1.000000
vt 0.000000 1.000000
vt 0.000000 0.000000
vt 1.000000 0.000000
vt 1.000000 1.000000
vt 0.000000 1.000000
vt 0.000000 0.000000
vt 1.000000 0.000000
vt 1.000000 1.000000
vt 0.000000 1.000000
vt 0.000000 0.000000
vt 1.000000 0.000000
vt 1.000000 1.000000
vt 0.000000 1.000000
vt 0.000000 0.000000
vt 1.000000 0.000000
vt 1.000000 1.000000
vt 0.000000 1.000000
vt 0.000000 0.000000
vt 1.000000 0.000000
vt 1.000000 1.000000
vt 0.000000 1.000000
vt 0.000000 0.000000
vt 1.000000 0.000000
vt 1.000000 1.000000
vt 0.000000 1.000000
vt 0.000000 0.000000
vt 1.000000 0.000000
vt 1.000000 1.000000
vt 0.000000 1.000000
vt 0.000000 0.000000
vt 1.000000 0.000000
vt 1.000000 1.000000
vt 0.000000 1.000000
vt 0.000000 0.000000
vt 1.000000 0.000000
vt 1.000000 1.000000
vt 0.000000 1.000000
vt 0.000000 0.000000
vt 1.000000 0.000000
vt 1.000000 1.000000
vt 0.000000 1.000000
vt 0.000000 0.000000
vt 1.000000 0.000000
vt 1.000000 1.000000
vt 0.000000 1.000000
vt 0.000000 0.000000
vt 1.000000 0.000000
vt 1.000000 1.000000
vt 0.000000 1.000000
vt 0.000000 0.000000
vt 1.000000 0.000000
vt 1.000000 1.000000
vt 0.000000 1.000000
vn 0.000000 0.000000 1.000000
vn 0.000000 0.000000 -1.000000
vn 1.000000 0.000000 0.000000
vn -1.000000 0.000000 0.000000
vn 0.000000 1.000000 0.000000
vn 0.000000 -1.000000 0.000000
vn 0.000000 0.000000 1.000000
vn 0.000000 0.000000 -1.000000
vn 1.000000 0.000000 0.000000
vn -1.000000 0.000000 0.000000
vn 0.000000 1.000000 0.000000
vn 0.000000 -1.000000 0.000000
vn 0.000000 0.000000 1.000000
vn 0.000000 0.000000 -1.000000
vn 1.000000 0.000000 0.000000
vn -1.000000 0.000000 0.000000
vn 0.000000 1.000000 0.000000
vn 0.000000 -1.000000 0.000000
vn 0.000000 0.000000 1.000000
vn 0.000000 0.000000 -1.000000
vn 1.000000 0.000000 0.000000
vn -1.000000 0.000000 0.000000
vn 0.000000 1.000000 0.000000
vn 0.000000 -1.000000 0.000000
vn 0.000000 0.000000 1.000000
vn 0.000000 0.000000 -1.000000
vn 1.000000 0.000000 0.000000
vn -1.000000 0.000000 0.000000
vn 0.000000 1.000000 0.000000
vn 0.000000 -1.000000 0.000000
vn 0.000000 0.000000 1.000000
vn 0.000000 0.000000 -1.000000
vn 1.000000 0.000000 0.000000
vn -1.000000 0.000000 0.000000
vn 0.000000 1.000000 0.000000
vn 0.000000 -1.000000 0.000000
o Holder
usemtl Mat_Holder
f 1/1/1 2/2/1 3/3/1
f 1/1/1 3/3/1 4/4/1
f 5/5/2 6/6/2 7/7/2
f 5/5/2 7/7/2 8/8/2
f 9/9/3 10/10/3 11/11/3
f 9/9/3 11/11/3 12/12/3
f 13/13/4 14/14/4 15/15/4
f 13/13/4 15/15/4 16/16/4
f 17/17/5 18/18/5 19/19/5
f 17/17/5 19/19/5 20/20/5
f 21/21/6 22/22/6 23/23/6
f 21/21/6 23/23/6 24/24/6
f 25/25/7 26/26/7 27/27/7
f 25/25/7 27/27/7 28/28/7
f 29/29/8 30/30/8 31/31/8
f 29/29/8 31/31/8 32/32/8
f 33/33/9 34/34/9 35/35/9
f 33/33/9 35/35/9 36/36/9
f 37/37/10 38/38/10 39/39/10
f 37/37/10 39/39/10 40/40/10
f 41/41/11 42/42/11 43/43/11
f 41/41/11 43/43/11 44/44/11
f 45/45/12 46/46/12 47/47/12
f 45/45/12 47/47/12 48/48/12
usemtl Mat_Bed
f 49/49/13 50/50/13 51/51/13
f 49/49/13 51/51/13 52/52/13
f 53/53/14 54/54/14 55/55/14
f 53/53/14 55/55/14 56/56/14
f 57/57/15 58/58/15 59/59/15
f 57/57/15 59/59/15 60/60/15
f 61/61/16 62/62/16 63/63/16
f 61/61/16 63/63/16 64/64/16
f 65/65/17 66/66/17 67/67/17
f 65/65/17 67/67/17 68/68/17
f 69/69/18 70/70/18 71/71/18
f 69/69/18 71/71/18 72/72/18
o Buttons
usemtl Mat_Fire
f 73/73/19 74/74/19 75/75/19
f 73/73/19 75/75/19 76/76/19
f 77/77/20 78/78/20 79/79/20
f 77/77/20 79/79/20 80/80/20
f 81/81/21 82/82/21 83/83/21
f 81/81/21 83/83/21 84/84/21
f 85/85/22 86/86/22 87/87/22
f 85/85/22 87/87/22 88/88/22
f 89/89/23 90/90/23 91/91/23
f 89/89/23 91/91/23 92/92/23
f 93/93/24 94/94/24 95/95/24
f 93/93/24 95/95/24 96/96/24
usemtl Mat_Police
f 97/97/25 98/98/25 99/99/25
f 97/97/25 99/99/25 100/100/25
f 101/101/26 102/102/26 103/103/26
f 101/101/26 103/103/26 104/104/26
f 105/105/27 106/106/27 107/107/27
f 105/105/27 107/107/27 108/108/27
f 109/109/28 110/110/28 111/111/28
f 109/109/28 111/111/28 112/112/28
f 113/113/29 114/114/29 115/115/29
f 113/113/29 115/115/29 116/116/29
f 117/117/30 118/118/30 119/119/30
f 117/117/30 119/119/30 120/120/30
usemtl Mat_Ambulance
f 121/121/31 122/122/31 123/123/31
f 121/121/31 123/123/31 124/124/31
f 125/125/32 126/126/32 127/127/32
f 125/125/32 127/127/32 128/128/32
f 129/129/33 130/130/33 131/131/33
f 129/129/33 131/131/33 132/132/33
f 133/133/34 134/134/34 135/135/34
f 133/133/34 135/135/34 136/136/34
f 137/137/35 138/138/35 139/139/35
f 137/137/35 139/139/35 140/140/35
f 141/141/36 142/142/36 143/143/36
f 141/141/36 143/143/36 144/144/36